<?xml version="1.0" encoding="UTF-8" standalone="no"?>
<svg width="200" height="200" viewBox="0 0 200 200" xmlns="http://www.w3.org/2000/svg">
  <!-- Background Circle -->
  <circle cx="100" cy="100" r="95" fill="#2a2f3a"/>
  
  <!-- Outer Ring -->
  <circle cx="100" cy="100" r="85" fill="none" stroke="#4a90e2" stroke-width="4"/>
  
  <!-- Inner Circle -->
  <circle cx="100" cy="100" r="75" fill="#2a2f3a"/>
  
  <!-- Chain Links -->
  <path d="M60,85 A20,20 0 1,1 80,105 A20,20 0 1,1 60,125 Z" fill="none" stroke="#4a90e2" stroke-width="6"/>
  <path d="M80,95 A20,20 0 1,1 100,115 A20,20 0 1,1 80,135 Z" fill="none" stroke="#4a90e2" stroke-width="6"/>
  <path d="M100,85 A20,20 0 1,1 120,105 A20,20 0 1,1 100,125 Z" fill="none" stroke="#4a90e2" stroke-width="6"/>
  
  <!-- Arrow (MEV symbol) -->
  <path d="M65,65 L135,65 L118,50 M135,65 L118,80" fill="none" stroke="#4ae29a" stroke-width="6" stroke-linecap="round" stroke-linejoin="round"/>
  
  <!-- Text ON1 -->
  <text x="100" y="160" fill="#ffffff" font-family="Arial, sans-serif" font-weight="bold" font-size="32" text-anchor="middle">ON1</text>
  
  <!-- Text Builder -->
  <text x="100" y="185" fill="#4a90e2" font-family="Arial, sans-serif" font-weight="bold" font-size="22" text-anchor="middle">BUILDER</text>
</svg> 